<?xml version="1.0" encoding="UTF-8"?>
<svg xmlns="http://www.w3.org/2000/svg" id="Layer_2" data-name="Layer 2" width="259.76" height="96.33" viewBox="0 0 259.76 96.33" preserveAspectRatio="xMidYMid meet">
  <defs>
    <style>
      .cls-1 {
        fill: #cc0924;
      }

      .cls-1, .cls-2 {
        stroke-width: 0px;
      }

      .cls-2 {
        fill: #000;
      }
    </style>
  </defs>
  <g id="Layer_1-2" data-name="Layer 1">
    <polygon class="cls-2" points="143.49 27.3 153.92 4.94 159.61 4.94 161.62 .63 144.79 .63 142.78 4.94 148.51 4.94 138.08 27.3 143.49 27.3"></polygon>
    <path class="cls-2" d="m154.39,26.06c.81,1.27,2.6,1.86,5.63,1.86,6.07,0,9.57-2.44,12.48-8.69L181.18.63h-5.41l-8.39,17.99c-1.25,2.68-2.53,4.9-5.49,4.9-.95,0-1.57-.22-1.84-.64-.53-.83.16-2.46.91-4.06L169.44.63h-5.41l-8.58,18.41c-1.62,3.47-1.94,5.64-1.06,7.03Z"></path>
    <polygon class="cls-2" points="187.44 27.3 189.45 22.99 180.36 22.99 190.79 .63 185.38 .63 172.95 27.3 187.44 27.3"></polygon>
    <path class="cls-2" d="m196.86,27.93c5.15,0,9.56-2.87,11.8-7.68,1.15-2.48,1.25-4.07.35-5.7-.81-1.44-3.06-3.53-3.98-4.36l-.05-.05c-1.04-.94-1.79-1.62-.95-3.42.73-1.56,1.91-2.31,3.62-2.31.71,0,1.18.17,1.39.51.46.73-.16,2.26-.9,3.81l-.16.33h5.24l.19-.41c.83-1.82,2.22-4.86.94-6.84-.77-1.2-2.42-1.81-4.89-1.81-5.13,0-8.97,2.44-11.12,7.05-.67,1.44-.9,2.92-.63,4.19.54,1.81,1.87,3.07,3.17,4.29.62.58,1.26,1.19,1.8,1.85.84.86.93,1.85.3,3.2-.91,1.95-2.35,2.94-4.26,2.94-.76,0-1.27-.2-1.51-.58-.38-.62-.14-1.83.7-3.49l.87-1.87h-5.4l-.96,2.06c-1.32,2.84-1.54,4.99-.66,6.38.81,1.27,2.53,1.91,5.12,1.91Z"></path>
    <path class="cls-2" d="m213.52,27.3l4.39-6.64h5.3l-1.8,6.64h5.73l6.39-26.67h-7.02l-18.8,26.67h5.82Zm7.26-10.95l4.69-7.08c.69-1.02,1.25-2,1.84-3.03l.17-.3-.07.19c-.34.96-.7,1.95-.96,2.94l-2.09,7.28h-3.58Z"></path>
    <path class="cls-2" d="m132.74,51.05c1.21-1.84,2.29-3.73,3.33-5.55.18-.32.37-.64.55-.96-.09.25-.18.49-.27.74-.66,1.84-1.35,3.74-1.86,5.59l-2.95,10.63h6.3l17.38-26.67h-5.63l-8.69,14.4c-1.35,2.17-2.57,4.34-3.68,6.37.01-.04.03-.07.04-.11.92-2.49,1.79-4.84,2.34-6.81l3.78-13.85h-4.49l-8.76,13.66c-1.19,1.83-2.43,4-3.73,6.3-.13.23-.27.47-.4.71.71-1.83,1.49-3.93,2.15-6.07l4.56-14.59h-5.56l-7.35,26.67h6.31l6.64-10.44Z"></path>
    <polygon class="cls-2" points="164.38 49.59 166.39 45.28 158.22 45.28 161.08 39.14 169.96 39.14 171.96 34.83 157.68 34.83 145.25 61.49 159.53 61.49 161.54 57.19 152.66 57.19 156.21 49.59 164.38 49.59"></polygon>
    <polygon class="cls-2" points="175.29 34.83 162.86 61.49 177.35 61.49 179.36 57.19 170.27 57.19 180.7 34.83 175.29 34.83"></polygon>
    <path class="cls-2" d="m193.94,60.78c5.18-2.37,7.96-8.33,10.42-13.6,2.28-4.88,3.06-7.45,2.81-9.18-.45-3.01-3.34-3.17-3.91-3.17h-10.35l-12.43,26.67h9.41c1.2,0,2.6-.06,4.06-.72Zm4.75-13.34c-3.46,7.41-4.75,9.75-9.05,9.75h-1.77l8.42-18.05h3.06c.79,0,1.29.18,1.53.57.67,1.06-.39,3.85-2.2,7.73Z"></path>
    <polygon class="cls-2" points="219.56 34.83 214.15 34.83 201.71 61.49 207.12 61.49 219.56 34.83"></polygon>
    <path class="cls-2" d="m223.01,61.49h5.5l12.43-26.67h-5.41l-2.46,5.27c-.98,2.11-2.03,4.53-3.19,7.38-.7,1.69-1.42,3.49-2.25,5.58.56-3.24.87-5.85,1-8.45l.66-9.79h-5.47l-12.43,26.67h5.41l2.36-5.06c.86-1.85,1.91-4.25,3.18-7.35.79-1.91,1.54-3.81,2.22-5.55-.57,3.3-.87,5.89-.99,8.39l-.56,9.57Z"></path>
    <path class="cls-2" d="m259.03,35.83c-.88-1.1-2.51-1.6-5.3-1.63-7.76,0-10.66,4.66-14.2,11.76l-1.74,3.75c-2.07,4.44-3.67,8.3-2.27,10.5.82,1.28,2.59,1.91,5.42,1.91h0c2.06-.16,3.89-1.05,5.57-2.72l-.97,2.09h4.19l6.78-14.54h-8.66l-2.01,4.31h3.4c-1.38,3.02-3.57,6.45-6.47,6.45-.8,0-1.35-.22-1.62-.64-.72-1.13.46-3.65.96-4.72l3.39-7.27.2-.43c.96-2.11,2.76-6.04,6.19-6.04,1.01.04,1.64.28,1.91.71.47.75-.07,2.13-.83,3.85l-.14.33h5.41l.06-.14c.09-.22.19-.44.29-.66.37-.84.76-1.71.96-2.56.43-1.94.26-3.36-.5-4.32Z"></path>
    <path class="cls-2" d="m115.47,78.59l-.05-.05c-1.04-.94-1.78-1.62-.94-3.42.73-1.56,1.91-2.31,3.62-2.31.71,0,1.18.17,1.39.51.46.73-.16,2.26-.9,3.8l-.16.33h5.24l.19-.41c.83-1.82,2.22-4.86.94-6.84-.77-1.2-2.42-1.81-4.89-1.81-5.13,0-8.98,2.44-11.13,7.06-.67,1.44-.89,2.92-.63,4.18.53,1.81,1.87,3.07,3.16,4.29.62.58,1.26,1.19,1.8,1.85.84.86.93,1.84.3,3.19-.91,1.95-2.34,2.94-4.26,2.94-.76,0-1.27-.2-1.51-.58-.38-.62-.14-1.83.7-3.49l.87-1.87h-5.41l-.96,2.06c-1.32,2.84-1.55,4.99-.66,6.38.81,1.27,2.53,1.91,5.12,1.91,5.15,0,9.56-2.87,11.8-7.68,1.15-2.47,1.25-4.07.35-5.7-.81-1.45-3.06-3.53-3.98-4.36Z"></path>
    <path class="cls-2" d="m139.05,87.62c.24-.45.5-.93.74-1.38l.19-.34h-5.46l-.07.12c-.12.23-.26.5-.41.81-.93,1.9-2.49,5.08-4.67,5.08-.8,0-1.35-.22-1.62-.64-.72-1.13.46-3.65.96-4.72l3.39-7.27.2-.43c.96-2.11,2.76-6.04,6.2-6.04.44,0,.73.11.89.34.44.64-.16,2.2-.6,3.33-.12.3-.23.59-.32.84l-.11.31h5.29l.07-.13c.35-.67.6-1.35.83-2.02.92-2.37.98-4.18.18-5.37-.74-1.11-2.22-1.69-4.39-1.72-7.76,0-10.66,4.66-14.2,11.77l-1.74,3.74c-2.07,4.45-3.68,8.31-2.27,10.51.82,1.29,2.59,1.91,5.41,1.91,4.78,0,8.42-2.73,11.45-8.58l.07-.12Z"></path>
    <polygon class="cls-2" points="162.96 69.03 158.12 79.4 151.79 79.4 156.63 69.03 151.22 69.03 138.78 95.7 144.19 95.7 149.78 83.71 156.11 83.71 150.52 95.7 155.93 95.7 168.37 69.03 162.96 69.03"></polygon>
    <path class="cls-2" d="m186.61,70.25c-.82-1.25-2.54-1.85-5.28-1.85-7.76,0-10.66,4.66-14.2,11.76l-1.74,3.74c-2.07,4.45-3.68,8.31-2.27,10.51.82,1.29,2.59,1.91,5.41,1.91,8.08,0,11.07-5.07,14.41-12.22l1.74-3.74c1.94-4.45,3.31-8.02,1.94-10.11Zm-7.13,2.57c.75,0,1.25.2,1.52.62.79,1.24-.55,4.09-1.27,5.62l-3.21,6.87c-1.11,2.38-2.79,5.98-6.17,5.98-.8,0-1.35-.22-1.62-.64-.72-1.12.46-3.65.96-4.72l3.39-7.27.2-.44c.96-2.11,2.76-6.03,6.2-6.03Z"></path>
    <path class="cls-2" d="m206.03,80.36c1.94-4.45,3.31-8.02,1.94-10.11-.82-1.25-2.55-1.85-5.29-1.85-7.76,0-10.66,4.66-14.19,11.76l-1.75,3.74c-2.07,4.45-3.68,8.31-2.27,10.51.82,1.29,2.59,1.91,5.41,1.91,8.08,0,11.07-5.07,14.41-12.22l1.75-3.74Zm-14.31,11.55c-.8,0-1.35-.22-1.62-.64-.72-1.13.46-3.65.96-4.72l3.39-7.27.2-.44c.96-2.11,2.76-6.03,6.2-6.03.75,0,1.25.2,1.51.62.78,1.23-.54,4.08-1.26,5.61l-3.21,6.89c-1.11,2.38-2.78,5.98-6.17,5.98Z"></path>
    <polygon class="cls-2" points="215.27 69.03 202.83 95.7 217.32 95.7 219.33 91.39 210.25 91.39 220.68 69.03 215.27 69.03"></polygon>
    <polygon class="cls-1" points="62.12 22.66 59.75 27.66 43.77 61.36 68.4 42.32 72.63 39.05 73.96 44.47 79.11 65.4 98.5 27.66 101.07 22.66 107.27 22.66 129.12 22.66 139.56 .62 45 .62 34.56 22.66 55.92 22.66 62.12 22.66"></polygon>
    <polygon class="cls-1" points="81.12 73.55 77.71 80.18 75.71 72.02 69.73 47.74 38.95 71.54 29.16 79.1 33.99 68.92 53.55 27.66 32.19 27.66 0 95.7 94.56 95.7 126.74 27.66 104.7 27.66 81.12 73.55"></polygon>
    <path class="cls-2" d="m235.49,73.37c0,2.79-2.24,5-5.09,5s-5.12-2.21-5.12-5,2.27-4.97,5.15-4.97,5.06,2.18,5.06,4.97Zm-8.94,0c0,2.21,1.67,3.97,3.88,3.97,2.15.03,3.79-1.76,3.79-3.94s-1.64-4-3.85-4-3.82,1.79-3.82,3.97Zm3.06,2.58h-1.15v-4.97c.45-.06,1.09-.15,1.91-.15.94,0,1.36.15,1.7.39.3.21.52.58.52,1.06,0,.61-.45,1-1.03,1.18v.06c.48.15.73.55.88,1.21.15.76.27,1.03.36,1.21h-1.21c-.15-.18-.24-.61-.39-1.21-.09-.52-.39-.76-1.03-.76h-.55v1.97Zm.03-2.79h.55c.64,0,1.15-.21,1.15-.73,0-.45-.33-.76-1.06-.76-.3,0-.52.03-.64.06v1.42Z"></path>
  </g>
</svg>
