<?xml version="1.0" encoding="UTF-8"?>
<svg id="Layer_1" xmlns="http://www.w3.org/2000/svg" version="1.1" viewBox="0 0 959.4 542.9">
  <!-- Generator: Adobe Illustrator 30.2.0, SVG Export Plug-In . SVG Version: 2.1.1 Build 26)  -->
  <defs>
    <style>
      .st0 {
        fill: #f7a800;
      }

      .st1 {
        fill: #fff;
      }
    </style>
  </defs>
  <path class="st1" d="M169.2,256.3h-86.5l-8.3,41h73.8l-8.6,43.1h-74.1l-16.5,83H0l42.2-210.2h135.5l-8.5,43.1Z"/>
  <path class="st1" d="M340.7,318.3c-7.9,36.9-13.6,62.3-33.9,82.4-18.6,18.6-43.3,24.5-64.8,24.5-47.1,0-70.9-29.8-70.9-61.4,0-9.4,1.6-24.8,6-45.5,7.9-36.9,13.6-62.3,33.9-82.4,18.7-18.6,43.3-24.5,64.9-24.5,47.1,0,70.9,29.8,70.9,61.4-.1,9.5-1.6,24.8-6.1,45.5ZM271.8,254.5c-8.54-.11-16.72,3.42-22.5,9.7-6.6,6.8-11.7,18.6-19.3,54-2.5,11.8-6,30.4-6,41.3,0,14.5,9.5,22.4,22.1,22.4,8.54.11,16.72-3.42,22.5-9.7,6.6-6.8,11.7-18.6,19.3-54,2.5-11.8,6-30.4,6-41.3,0-14.4-9.5-22.4-22.1-22.4h0Z"/>
  <path class="st1" d="M481,337.5l28.1,85.9h-53.7l-22.1-79.7h-18.6l-16.2,79.7h-49l42-210.2h74.7c44,0,60.2,28.4,60.2,60.8.1,23.3-14.1,50.5-45.4,63.5ZM458,256.9h-26l-9.4,46.1h25.7c23.3,0,28.9-17.7,28.9-26.3,0-13-7.1-19.8-19.2-19.8Z"/>
  <path class="st1" d="M696.3,256.6h-48.1l-33.4,166.8h-49l33.4-166.8h-50.2l8.9-43.4h147.4l-9,43.4Z"/>
  <path class="st1" d="M744.2,423.4h-49l42.2-210.2h49l-42.2,210.2Z"/>
  <path class="st1" d="M923.3,267.8c-8.9-10.9-20.4-13.6-34.3-13.6-20.1,0-31.6,12.4-31.6,23,0,11.2,9.4,13.6,18,15.9l15.9,4.1c36.9,9.4,49,26.6,49,56.7,0,50.8-42.2,71.2-87.1,71.2-35.1,0-56.1-8-74.4-28.9l35.4-31c10.3,11.8,25.1,16.5,43.4,16.5,19.2,0,33.4-10.6,33.4-22.7,0-11.2-6.2-15.1-17.7-18l-15.9-4.1c-42.5-10.9-49-35.4-49-51.7,0-46.1,35.7-73.8,86.2-73.8,26.3,0,49.6,9.2,62.9,26.3l-34.2,30.1Z"/>
  <g id="Flames">
    <path class="st0" d="M525.6,103.4c13.6,4.3,27.6.9,27.6-17.3,0-27.7-65.1-51-74.2-75.2-2.2-6-2.4-11,.5-10.9,2.1.1.5,3.1,5,7.7,27,27,72.2,26.9,106.8,42.5,22.7,10.2,89.4,41.6,74,111.5-.7,3.3-2.7,14.4-4.7,14.4-2.4,0-2.3-6.6-2.3-14.6.5-41.7-48.8-53.3-64.9-80.5-1.9-3.3-5.2-7.8-6-5.7-.4,1-.1,2.5.5,5.4,5,22.4,28.4,36.7,21.8,52.7-8.6,20.8-33.4,5.3-41-8.1-2-3.7-3.2-6-4.5-5.5-1,.4-1,4.6-.4,8.4,4.1,24.1,9.6,37.6,27.2,51.3,5.6,4.4,14.5,5.3,13.3,8.7-.3.9-4.1.8-7.2.5-46.9-3-86.1-58.3-96.5-94.4-1.1-2.5-1.4-4.9-.3-5.8,1.4-1.1,3.5,1.4,5.6,3.3,5.6,4.6,13,9.5,19.7,11.6Z"/>
  </g>
  <g>
    <path class="st1" d="M39.64,478.72c0-8.2-3.33-14.04-9.73-14.04-4.3,0-7.54,2.25-10.26,5.73-3.07,3.93-4.56,10-6.75,24.82-1.32,8.54-2.02,14.15-2.02,17.86,0,8.09,4.47,12.69,10,12.69,7.37,0,12.01-6.85,14.12-14.04h9.3c-3.95,15.72-13.07,24.15-23.85,24.15s-18.59-8.99-18.59-22.13c0-3.03.44-8.09,2.02-18.53,2.46-16.74,3.95-24.71,9.38-31.67,4.65-5.95,10.87-8.99,17.01-8.99,12.36,0,18.33,10.45,18.42,24.15h-9.03Z"/>
    <path class="st1" d="M99.01,495.23c-2.46,16.74-4.03,24.82-9.38,31.67-4.47,5.73-10.96,8.99-17.19,8.99-10.96,0-18.06-9.55-18.06-22.13,0-3.48.53-8.54,2.02-18.53,2.46-16.74,4.03-24.82,9.38-31.67,4.47-5.73,10.96-8.99,17.19-8.99,10.96,0,18.06,9.55,18.06,22.13,0,3.48-.53,8.54-2.02,18.53ZM82.44,464.68c-4.03,0-7.54,2.13-10.35,5.84s-4.3,8.87-6.66,24.71c-1.32,8.65-2.02,14.04-2.02,17.75,0,8.42,4.74,12.8,9.56,12.8,4.03,0,7.54-2.13,10.35-5.84,2.81-3.71,4.3-8.87,6.66-24.71,1.32-8.65,1.93-14.04,1.93-17.75,0-8.42-4.65-12.8-9.47-12.8Z"/>
    <path class="st1" d="M144.09,535.22h-37.88l12.54-79.97h9.03l-10.87,69.86h28.76l-1.58,10.11Z"/>
    <path class="st1" d="M192.14,535.22h-37.88l12.54-79.97h9.03l-10.87,69.86h28.76l-1.58,10.11Z"/>
    <path class="st1" d="M251.16,465.35h-28.85l-3.77,24.49h24.73l-1.58,10.11h-24.73l-3.95,25.16h29.38l-1.58,10.11h-38.5l12.54-79.97h37.88l-1.58,10.11Z"/>
    <path class="st1" d="M292.82,478.83c-.09-8.65-3.77-14.15-9.82-14.15-4.03,0-7.54,2.13-10.35,5.73-3.24,4.16-4.65,9.77-6.93,24.82-1.31,8.87-1.93,14.04-1.93,17.75,0,9.21,5.35,12.8,10.17,12.8,5.96,0,13.15-5.62,15.08-18.87l.79-5.05h-12.72l1.4-9.66h21.66l-1.75,12.02c-1.49,10.45-3.77,17.07-8.24,22.8-4.12,5.28-10.08,8.87-16.84,8.87-11.22,0-18.59-9.43-18.59-22.13,0-4.27.61-9.66,1.93-18.53,2.89-19.09,4.38-25.16,9.38-31.56,4.38-5.62,10.61-9.1,17.19-9.1,12.72,0,18.5,11.12,18.59,24.26h-9.03Z"/>
    <path class="st1" d="M355.78,465.35h-28.85l-3.77,24.49h24.73l-1.58,10.11h-24.73l-3.95,25.16h29.38l-1.58,10.11h-38.5l12.54-79.97h37.88l-1.58,10.11Z"/>
    <path class="st1" d="M397.17,471.08c-2.81-4.27-6.23-6.51-11.84-6.51-8.42,0-13.42,7.53-13.42,14.94,0,5.62,3.51,8.09,7.8,9.44l5.44,1.68c9.91,3.03,13.86,8.87,13.86,20.11,0,16.85-11.22,25.16-24.2,25.16-9.3,0-15.08-3.14-20.26-11.01l6.66-7.41c3.51,5.62,7.98,8.2,14.38,8.2,8.07,0,14.38-5.95,14.38-14.15,0-6.96-3.24-9.21-7.72-10.56l-5.52-1.68c-8.24-2.47-13.86-8.65-13.86-18.53,0-13.25,7.89-26.17,23.5-26.17,6.93,0,12.89,2.81,17.1,9.43l-6.31,7.08Z"/>
    <path class="st1" d="M468.55,519.83l7.72,15.39h-10.44l-3.77-7.86c-3.6,3.93-9.82,8.54-17.8,8.54-8.68,0-16.57-5.84-16.57-19.43s6.75-20.67,15.87-27.74c-1.93-4.04-3.95-8.54-3.95-14.38,0-8.54,4.12-19.77,16.49-19.77,10.08,0,12.72,9.1,12.72,15.61s-3.16,12.24-8.94,16.85l-5,4.04,9.38,20.11c2.89-4.04,4.65-8.99,5.7-15.95h8.24c-1.4,9.88-4.12,17.52-9.65,24.6ZM447.25,496.69c-6.75,5.17-10.87,10.11-10.87,18.42,0,6.4,3.42,11.01,8.68,11.01,4.03,0,8.68-2.25,12.89-7.08l-10.7-22.35ZM455.58,463.89c-4.74,0-7.28,5.05-7.28,10.45,0,2.7,1.05,5.73,2.81,9.32.35-.34,3.24-2.58,3.24-2.58,3.6-2.81,6.23-5.62,6.23-10.56,0-4.38-2.19-6.63-5-6.63Z"/>
    <path class="st1" d="M516.7,535.22h-9.03l12.54-79.97h9.03l-12.54,79.97Z"/>
    <path class="st1" d="M576.86,535.22h-7.89l-18.77-57.28-9.03,57.28h-9.03l12.54-79.97h7.98l18.77,57.28,8.95-57.28h9.03l-12.54,79.97Z"/>
    <path class="st1" d="M632.1,471.08c-2.81-4.27-6.23-6.51-11.84-6.51-8.42,0-13.42,7.53-13.42,14.94,0,5.62,3.51,8.09,7.8,9.44l5.44,1.68c9.91,3.03,13.86,8.87,13.86,20.11,0,16.85-11.22,25.16-24.2,25.16-9.3,0-15.08-3.14-20.26-11.01l6.66-7.41c3.51,5.62,7.98,8.2,14.38,8.2,8.07,0,14.38-5.95,14.38-14.15,0-6.96-3.25-9.21-7.72-10.56l-5.53-1.68c-8.24-2.47-13.86-8.65-13.86-18.53,0-13.25,7.89-26.17,23.5-26.17,6.93,0,12.89,2.81,17.1,9.43l-6.31,7.08Z"/>
    <path class="st1" d="M688.49,465.47h-16.14l-10.96,69.75h-9.03l10.96-69.75h-16.49l1.67-10.22h41.57l-1.58,10.22Z"/>
    <path class="st1" d="M696.91,535.22h-9.03l12.54-79.97h9.03l-12.54,79.97Z"/>
    <path class="st1" d="M759.61,465.47h-16.14l-10.96,69.75h-9.03l10.96-69.75h-16.49l1.67-10.22h41.57l-1.58,10.22Z"/>
    <path class="st1" d="M804.86,508.37c-2.89,18.53-12.71,27.52-24.64,27.52-9.47,0-18.24-7.64-18.24-22.24,0-2.25.35-5.28.61-6.96l7.98-51.44h9.03l-8.16,52.34c-.17,1.35-.44,3.59-.44,5.39,0,6.29,2.72,12.69,9.82,12.69s13.33-6.29,15.26-18.65l8.07-51.78h9.03l-8.33,53.13Z"/>
    <path class="st1" d="M862.56,465.47h-16.14l-10.96,69.75h-9.03l10.96-69.75h-16.49l1.67-10.22h41.57l-1.58,10.22Z"/>
    <path class="st1" d="M910.79,465.35h-28.85l-3.77,24.49h24.73l-1.58,10.11h-24.73l-3.95,25.16h29.38l-1.58,10.11h-38.5l12.54-79.97h37.88l-1.58,10.11Z"/>
    <path class="st1" d="M952.19,471.08c-2.81-4.27-6.23-6.51-11.84-6.51-8.42,0-13.42,7.53-13.42,14.94,0,5.62,3.51,8.09,7.8,9.44l5.44,1.68c9.91,3.03,13.86,8.87,13.86,20.11,0,16.85-11.22,25.16-24.2,25.16-9.3,0-15.08-3.14-20.26-11.01l6.66-7.41c3.51,5.62,7.98,8.2,14.38,8.2,8.07,0,14.38-5.95,14.38-14.15,0-6.96-3.25-9.21-7.72-10.56l-5.53-1.68c-8.24-2.47-13.86-8.65-13.86-18.53,0-13.25,7.89-26.17,23.5-26.17,6.93,0,12.89,2.81,17.1,9.43l-6.31,7.08Z"/>
  </g>
</svg>