<?xml version="1.0" encoding="UTF-8"?><svg id="Layer_1" xmlns="http://www.w3.org/2000/svg" viewBox="0 0 417.49 417.08"><defs><style>.cls-1{fill:#1a3967;stroke:#1a3967;}</style></defs><polygon class="cls-1" points="169.08 165.48 201.59 65.27 240.66 150.12 203.79 1.69 151.94 140.5 1.69 140.49 134.03 226.55 71.86 165.47 169.08 165.48"/><path class="cls-1" d="M417.37,122.88s-116.95-14.59-230.33,72.91c0,0-99.65,82.66-113.5,221.13,0,0,56.9-158.65,160.36-220.39,103.45-61.74,132.34-60.39,183.47-73.64Z"/><polygon class="cls-1" points="130.03 369.29 202.39 273.8 286.59 328.02 248.68 238.71 343.52 171.8 281.83 246.52 323.31 372.82 204.16 306.79 130.03 369.29"/></svg>